<?xml version="1.0" standalone="no"?>
<!DOCTYPE svg PUBLIC "-//W3C//DTD SVG 20010904//EN"
 "http://www.w3.org/TR/2001/REC-SVG-20010904/DTD/svg10.dtd">
<svg version="1.0" xmlns="http://www.w3.org/2000/svg"
 width="742.000000pt" height="742.000000pt" viewBox="0 0 742.000000 742.000000"
 preserveAspectRatio="xMidYMid meet">
<metadata>
Created by potrace 1.11, written by Peter Selinger 2001-2013
</metadata>
<g transform="translate(0.000000,742.000000) scale(0.100000,-0.100000)"
fill="#000000" stroke="none">
<path d="M3650 6833 c-25 -43 -50 -87 -57 -98 -7 -11 -18 -31 -25 -45 -7 -14
-15 -27 -19 -30 -3 -3 -8 -12 -12 -20 -3 -8 -20 -37 -37 -65 -16 -27 -33 -57
-37 -65 -4 -8 -49 -86 -100 -173 -51 -88 -93 -161 -93 -163 0 -3 -12 -23 -27
-47 -15 -23 -28 -44 -28 -47 0 -3 -19 -36 -42 -75 -23 -38 -82 -139 -131 -224
l-90 -154 62 -101 c33 -56 63 -103 66 -106 3 -3 11 -16 18 -30 7 -14 25 -45
42 -70 16 -25 46 -74 67 -109 21 -35 46 -75 55 -90 10 -14 21 -33 25 -41 4 -8
23 -39 43 -70 20 -30 39 -59 41 -65 2 -5 29 -49 59 -98 30 -48 60 -95 65 -105
8 -14 62 -101 125 -202 67 -107 110 -181 110 -189 0 -5 7 -14 15 -21 11 -9 62
-90 85 -135 3 -5 17 -29 33 -52 15 -24 27 -45 27 -48 0 -3 5 -11 10 -18 6 -7
60 -93 120 -192 61 -99 114 -187 120 -195 5 -8 19 -31 30 -50 11 -19 41 -66
66 -105 24 -38 47 -78 51 -87 3 -10 9 -18 14 -18 5 0 9 -4 9 -9 0 -6 27 -53
60 -106 33 -53 60 -100 60 -105 0 -4 3 -10 8 -12 4 -1 30 -41 58 -88 28 -47
98 -161 156 -255 58 -93 174 -282 258 -420 84 -137 175 -285 201 -327 27 -42
49 -81 49 -87 0 -5 3 -11 8 -13 4 -1 53 -77 108 -168 56 -91 181 -294 278
-452 97 -158 176 -292 176 -298 0 -5 4 -10 8 -10 5 0 14 -10 21 -22 17 -34 46
-82 146 -243 50 -80 95 -153 100 -163 6 -9 32 -52 59 -95 l48 -77 247 0 247 0
-2 697 c0 384 -5 708 -9 721 -4 12 -11 22 -16 22 -5 0 -9 6 -9 14 0 7 -9 25
-21 40 -11 14 -18 26 -15 26 3 0 -5 15 -17 33 -12 19 -58 97 -102 175 -44 78
-83 142 -86 142 -3 0 -6 -413 -7 -917 0 -505 -1 -925 -1 -933 -1 -12 -124 193
-230 385 l-28 50 -2 445 c-2 245 -4 675 -5 956 l-2 510 -37 61 c-20 33 -37 66
-37 72 0 6 -4 11 -10 11 -5 0 -10 4 -10 8 0 7 -96 178 -178 317 -9 15 -11
-198 -9 -933 1 -631 -1 -951 -8 -949 -5 2 -17 17 -25 33 -8 16 -18 31 -22 32
-5 2 -8 10 -8 18 0 8 -4 14 -10 14 -5 0 -10 4 -10 10 0 8 -28 55 -88 150 -9
14 -17 27 -17 30 0 3 -13 24 -28 47 -15 24 -27 47 -27 53 0 5 -3 10 -8 10 -4
0 -16 16 -26 35 -18 34 -19 75 -20 1013 l-2 977 -71 120 c-88 148 -113 192
-160 277 -21 38 -41 68 -44 68 -3 0 -5 -443 -5 -984 1 -541 -2 -982 -7 -979
-4 2 -16 21 -27 41 -11 20 -30 53 -42 72 -12 19 -26 44 -32 55 -6 11 -49 82
-94 159 l-84 139 0 1006 c0 553 -3 1010 -8 1016 -4 5 -17 26 -27 45 -11 19
-80 139 -153 265 -73 127 -143 248 -155 270 -13 22 -56 96 -96 165 -83 144
-86 149 -199 347 -46 81 -87 150 -90 153 -4 3 -13 20 -21 38 -8 17 -17 32 -21
32 -5 0 -8 4 -8 10 0 5 -20 44 -45 86 -25 41 -45 77 -45 79 0 2 -21 39 -46 82
-26 43 -55 92 -64 108 -10 17 -41 70 -69 118 -28 49 -51 92 -51 96 0 4 -6 13
-12 19 -7 7 -29 43 -49 79 -19 37 -40 68 -45 70 -5 2 -30 -32 -54 -74z"/>
<path d="M2777 5323 c-4 -10 -11 -25 -17 -33 -21 -31 -100 -171 -100 -177 0
-4 -6 -14 -14 -22 -13 -14 -4 -33 71 -156 47 -77 136 -223 198 -325 61 -102
163 -268 225 -370 62 -102 120 -197 129 -212 9 -14 44 -73 79 -130 35 -57 68
-112 75 -123 6 -11 24 -39 39 -62 15 -23 28 -44 28 -47 0 -2 27 -48 60 -101
33 -53 60 -100 60 -106 0 -5 3 -9 8 -9 4 0 23 -29 42 -65 19 -36 38 -65 43
-65 4 0 7 -4 7 -9 0 -8 237 -403 288 -481 9 -14 17 -28 17 -32 0 -4 7 -15 15
-25 8 -10 58 -89 110 -176 52 -87 104 -173 115 -191 163 -270 201 -332 208
-334 4 -2 7 -7 7 -12 0 -5 23 -45 51 -90 28 -45 59 -96 68 -114 10 -17 56 -92
101 -166 46 -74 103 -169 128 -210 24 -41 60 -98 78 -127 19 -28 34 -56 34
-61 0 -6 3 -12 8 -14 4 -1 15 -16 24 -33 10 -16 118 -195 240 -397 l223 -368
163 0 c163 0 163 0 156 22 -3 12 -11 26 -16 32 -5 6 -42 65 -82 131 -40 66
-177 291 -305 499 -127 209 -231 383 -231 388 0 4 -4 8 -9 8 -5 0 -11 8 -15
18 -5 15 -44 80 -195 322 -19 30 -34 57 -33 60 0 3 -5 12 -12 20 -8 8 -84 132
-171 275 -87 143 -170 278 -184 300 -14 22 -26 42 -26 45 0 3 -14 25 -30 50
-26 41 -417 680 -454 742 -9 15 -40 67 -70 115 -163 266 -298 486 -561 918
-161 264 -320 525 -354 580 -33 55 -65 107 -71 117 -5 9 -30 50 -55 90 -25 40
-47 77 -49 83 -2 5 -12 17 -21 28 -17 17 -18 17 -23 0z"/>
<path d="M2396 4660 c-42 -73 -76 -135 -76 -138 0 -4 16 -34 36 -67 20 -33 45
-73 54 -90 16 -28 188 -311 209 -345 37 -58 187 -307 190 -314 2 -6 8 -15 13
-21 17 -19 188 -307 188 -315 0 -5 4 -10 8 -12 5 -1 23 -30 42 -63 18 -33 37
-62 40 -65 4 -3 9 -10 11 -15 2 -6 45 -77 94 -158 50 -82 97 -161 106 -176 17
-28 250 -412 299 -491 44 -71 240 -393 253 -415 6 -11 24 -39 39 -62 15 -23
28 -44 28 -47 0 -4 26 -48 58 -99 50 -79 73 -117 137 -226 12 -20 106 -174
233 -381 52 -85 103 -168 112 -185 10 -16 68 -113 130 -215 62 -102 125 -205
140 -230 l26 -45 162 -3 c129 -2 162 0 162 11 0 7 -4 17 -9 22 -9 10 -141 225
-324 530 -50 83 -93 152 -96 155 -3 3 -17 25 -30 50 -13 25 -29 52 -36 60 -24
31 -105 168 -105 178 0 6 -3 12 -8 14 -4 2 -38 55 -76 118 -38 63 -80 130 -93
148 -13 17 -21 32 -17 32 4 0 0 8 -8 18 -8 9 -35 51 -60 92 -43 72 -252 414
-541 889 -76 123 -137 228 -137 232 0 5 -4 9 -10 9 -5 0 -10 5 -10 11 0 6 -8
23 -19 37 -10 15 -28 43 -39 62 -11 19 -75 125 -142 235 -145 236 -268 438
-359 590 -36 61 -69 112 -73 113 -5 2 -8 7 -8 12 0 5 -23 44 -50 87 -28 43
-54 87 -59 99 -5 11 -22 40 -37 65 -16 24 -34 53 -41 64 -7 11 -51 83 -98 160
-48 77 -92 149 -98 160 -36 60 -29 65 -111 -75z"/>
<path d="M2134 4208 c-3 -13 -14 -34 -24 -48 -9 -14 -32 -52 -50 -85 -18 -33
-41 -70 -51 -83 -17 -23 -17 -25 3 -60 11 -20 28 -48 37 -62 22 -34 35 -56 72
-120 18 -30 38 -62 44 -70 7 -8 24 -35 38 -60 13 -25 61 -105 106 -178 44 -73
81 -135 81 -138 0 -2 5 -10 11 -17 17 -20 209 -338 209 -347 0 -4 3 -10 8 -12
7 -3 72 -106 72 -115 0 -3 8 -17 19 -31 17 -25 281 -457 321 -527 9 -16 44
-73 77 -125 32 -52 74 -120 92 -150 47 -80 108 -181 270 -448 80 -130 149
-246 155 -256 6 -11 15 -25 19 -30 5 -6 30 -47 57 -91 54 -90 283 -466 318
-523 12 -20 25 -44 29 -52 4 -8 11 -19 16 -25 4 -5 17 -25 27 -42 l20 -33 160
0 c148 0 173 4 153 24 -5 4 -8 11 -8 14 0 4 -8 18 -17 32 -60 95 -88 142 -88
150 0 6 -4 10 -8 10 -5 0 -16 15 -25 33 -9 17 -27 50 -41 72 -39 66 -157 257
-185 300 -14 22 -26 42 -26 45 0 3 -16 30 -35 61 -19 30 -40 64 -47 75 -153
247 -190 309 -203 332 -8 15 -18 29 -22 30 -5 2 -8 7 -8 12 0 4 -18 37 -39 71
-102 164 -216 354 -220 363 -2 6 -7 13 -11 16 -7 6 -70 108 -70 115 0 2 -13
23 -29 47 -16 24 -38 59 -49 78 -10 19 -65 109 -121 198 -55 90 -101 166 -101
168 0 2 -17 30 -37 62 -20 31 -46 73 -59 92 -31 50 -355 581 -368 605 -6 11
-23 38 -38 61 -14 23 -35 56 -45 75 -10 19 -32 54 -47 79 -68 105 -186 302
-186 310 0 5 -3 10 -8 12 -4 2 -34 47 -66 101 -33 54 -63 100 -67 103 -4 2
-11 -6 -15 -18z"/>
<path d="M1785 3603 c-15 -26 -38 -66 -50 -88 l-23 -40 60 -105 c33 -58 72
-125 85 -150 14 -25 41 -72 61 -104 l35 -59 0 -1289 0 -1288 144 0 c107 0 143
3 144 13 0 6 1 479 1 1049 1 764 4 1033 12 1025 6 -7 27 -37 46 -67 19 -30 38
-56 42 -58 5 -2 8 -8 8 -13 0 -9 48 -87 60 -99 3 -3 14 -22 25 -42 11 -21 23
-38 27 -38 5 0 8 -5 8 -11 0 -6 14 -30 30 -54 l30 -44 0 -830 0 -831 616 0
616 0 -14 23 c-31 48 -184 300 -207 340 -13 23 -28 43 -32 45 -5 2 -9 7 -9 11
0 5 -70 122 -156 262 -86 140 -164 266 -173 281 -9 15 -54 89 -100 164 -46 75
-194 315 -327 533 -134 218 -248 401 -254 408 -5 7 -10 15 -10 18 0 4 -15 30
-33 58 -33 51 -152 244 -172 279 -5 10 -84 138 -175 285 -91 147 -169 275
-175 285 -30 51 -71 117 -90 146 l-23 33 -27 -48z"/>
<path d="M1634 3335 c-9 -22 -242 -425 -257 -443 -7 -9 -12 -233 -14 -700 -2
-378 -4 -691 -4 -697 0 -5 0 -46 0 -90 1 -44 0 -270 -2 -503 l-2 -422 148 0
c111 0 147 3 147 13 4 133 1 2850 -4 2854 -3 3 -9 -2 -12 -12z"/>
<path d="M1060 2353 c0 -6 -41 -82 -91 -169 -50 -88 -100 -175 -111 -194 -11
-19 -31 -53 -43 -75 l-23 -40 0 -697 -1 -698 143 0 142 0 -1 934 c0 514 -3
938 -7 942 -5 4 -8 3 -8 -3z"/>
<path d="M473 1323 c-11 -21 -72 -129 -137 -241 -64 -112 -116 -207 -116 -212
0 -6 -4 -10 -10 -10 -5 0 -10 -4 -10 -8 0 -5 -45 -87 -100 -182 -55 -96 -100
-177 -100 -180 0 -8 488 -6 496 3 9 9 12 867 3 867 -3 0 -14 -17 -26 -37z"/>
<path d="M6910 922 l0 -442 258 0 c169 0 252 4 242 10 -8 5 -10 10 -5 10 7 0
7 3 0 8 -5 4 -15 16 -21 27 -42 78 -84 150 -122 215 -24 41 -58 100 -75 130
-49 89 -269 475 -273 479 -2 2 -4 -194 -4 -437z"/>
</g>
</svg>
